<svg width="120" height="108" viewBox="0 0 120 108" fill="none" xmlns="http://www.w3.org/2000/svg">
<path d="M101.264 35.4967C108.495 35.4967 114.357 41.3585 114.357 48.5894C114.357 55.8203 108.495 61.6822 101.264 61.6822C94.0332 61.6822 88.1713 55.8205 88.1713 48.5895C88.1807 41.3624 94.0368 35.5063 101.263 35.497H101.264L101.264 35.4967ZM101.264 56.2494C105.495 56.2494 108.924 52.8199 108.924 48.5893C108.924 44.3587 105.495 40.9294 101.264 40.9294C97.0335 40.9294 93.6039 44.3589 93.6039 48.5895C93.6102 52.8175 97.036 56.2432 101.263 56.2494H101.264ZM119.518 74.7746H114.085C114.073 67.6841 108.34 61.9363 101.257 61.8993H101.253C94.2377 61.9371 88.5464 67.5542 88.3891 74.5373L88.3889 74.5519L82.9563 74.4597C83.0456 64.431 91.1961 56.3358 101.237 56.3358C111.334 56.3358 119.518 64.5206 119.518 74.6171C119.518 74.6726 119.518 74.7279 119.518 74.7831L119.518 74.7746H119.518ZM18.2536 35.4967C25.4845 35.4967 31.3463 41.3585 31.3463 48.5894C31.3463 55.8203 25.4846 61.6822 18.2536 61.6822C11.0228 61.6822 5.16097 55.8205 5.16097 48.5895C5.17031 41.3624 11.0264 35.5063 18.2527 35.497H18.2536V35.4967ZM18.2536 56.2494C22.4841 56.2494 25.9137 52.8199 25.9137 48.5893C25.9137 44.3587 22.4841 40.9294 18.2536 40.9294C14.0231 40.9294 10.5935 44.3589 10.5935 48.5895C10.5998 52.8175 14.0256 56.2432 18.2531 56.2494H18.2536ZM36.5614 74.7746H31.129C31.1293 74.7415 31.1294 74.7023 31.1294 74.6633C31.1294 67.5672 25.377 61.8147 18.2808 61.8147C11.2239 61.8147 5.49571 67.5039 5.43268 74.5461V74.5519L0 74.4597C0.0908054 64.4321 8.24065 56.3383 18.2808 56.3383C28.3774 56.3383 36.5621 64.5233 36.5621 74.6199C36.5621 74.6762 36.5621 74.7325 36.5614 74.7887V74.7802V74.7746ZM96.0488 20.1768H27.2881L47.4592 0L51.3004 3.84091L40.4026 14.7442H96.0488V20.1768ZM72.0584 107.533L68.212 103.698L79.1315 92.7403H23.469V87.3076H92.2134L72.0584 107.533Z" fill="black"/>
</svg>
