<svg width="133" height="119" viewBox="0 0 133 119" fill="none" xmlns="http://www.w3.org/2000/svg">
<path d="M25.8857 0.00810187H26.6371C26.843 0.00300924 27.085 0 27.3278 0C41.3226 0 52.7218 9.72043 53.1808 21.863L53.1819 21.9V21.9861C53.1819 27.9491 49.0124 35.5608 40.8026 44.6483C36.9323 48.8841 32.9969 52.6727 28.8074 56.234L28.7743 56.2621L26.6682 58.0074L24.5495 56.2728C20.2954 52.6972 16.3442 48.9273 12.6773 44.9484L12.4719 44.7181C4.21263 35.663 0.0308331 28.0192 0.0308331 21.986V21.8998C0.495977 9.72379 11.893 0.00787029 25.8844 0.00787029H25.8857V0.00810187ZM26.6371 5.39471H26.5386C26.3515 5.38927 26.1317 5.38603 25.911 5.38603C15.2654 5.38603 6.59128 12.7684 6.21533 21.9991L6.2144 22.0292C6.25754 30.8093 19.4621 44.2226 26.6495 50.5412C33.7999 44.1795 46.9614 30.6857 47.0229 22.0291C46.6936 12.776 38.0386 5.38441 27.4097 5.38441C27.1702 5.38441 26.932 5.38811 26.6952 5.39564L26.7296 5.39483L26.6371 5.39471ZM32.4881 23.2789C32.4881 26.1053 29.8686 28.3962 26.6372 28.3962C23.4058 28.3962 20.7864 26.1051 20.7864 23.2789C20.7864 20.4524 23.4059 18.1615 26.6373 18.1615C29.8687 18.1615 32.4883 20.4526 32.4883 23.2789H32.4881ZM103.007 118.517H17.7685C7.95495 118.517 0 111.559 0 102.976C0 94.3926 7.95508 87.4351 17.7681 87.4351H47.1367C53.4804 87.4351 58.6231 82.9371 58.6231 77.3887C58.6231 71.8562 53.5102 67.3684 47.1919 67.3423H20.7244V61.9557H47.2448C56.868 62.0269 64.657 68.7943 64.822 77.1866L64.8223 77.2002V77.254C64.7878 85.8169 56.8815 92.7548 47.1044 92.8217H17.7685C11.3568 92.8217 6.15909 97.3678 6.15909 102.976C6.15909 108.584 11.3568 113.13 17.7685 113.13H103.007V118.517ZM100.236 105.534H94.0766V38.6847H100.235L100.236 105.534ZM94.0764 84.5798V44.1791L132.514 64.4064L94.0764 84.5798ZM100.235 53.7245V75.0722L120.559 64.4171L100.235 53.7245Z" fill="black"/>
</svg>
