<svg width="171" height="158" viewBox="0 0 171 158" fill="none" xmlns="http://www.w3.org/2000/svg">
<path d="M85.5 0.000154057C95.8455 0.000154057 104.232 7.73963 104.232 17.2872C104.232 26.8348 95.8452 34.5738 85.4998 34.5738C75.1545 34.5738 66.7674 26.8343 66.7674 17.287C66.7808 7.74471 75.1597 0.0123314 85.4985 0H85.4998L85.5 0.000154057ZM85.5 27.4009C91.5528 27.4009 96.4595 22.8728 96.4595 17.287C96.4595 11.7012 91.5528 7.17316 85.5 7.17316C79.4472 7.17316 74.5405 11.7012 74.5405 17.287C74.5493 22.8694 79.4508 27.3926 85.4993 27.4009H85.5ZM111.616 51.5021H103.844C103.844 42.1529 95.6307 34.5739 85.5 34.5739C75.3693 34.5739 67.1564 42.1529 67.1564 51.5023H59.3837C59.3837 38.1915 71.0763 27.4011 85.5 27.4011C99.9237 27.4011 111.616 38.1915 111.616 51.5021ZM144.884 82.1308C155.229 82.1308 163.616 89.8702 163.616 99.4178C163.616 108.965 155.229 116.705 144.884 116.705C134.538 116.705 126.151 108.965 126.151 99.4175C126.164 89.8753 134.543 82.1428 144.882 82.1308H144.884ZM144.884 109.532C150.936 109.532 155.843 105.004 155.843 99.4179C155.843 93.8321 150.936 89.3041 144.884 89.3041C138.831 89.3041 133.924 93.8321 133.924 99.4179C133.933 105 138.834 109.524 144.883 109.532L144.884 109.532ZM118.69 133.719C118.69 120.389 130.4 109.582 144.845 109.582C159.29 109.582 171 120.389 171 133.719H163.227C163.227 124.35 154.997 116.755 144.845 116.755C134.692 116.755 126.462 124.35 126.462 133.719L118.69 133.719ZM26.1165 82.1308C36.4618 82.1308 44.8486 89.8705 44.8486 99.4178C44.8486 108.965 36.462 116.705 26.1161 116.705C15.7708 116.705 7.38406 108.965 7.38406 99.4178C7.39743 89.8755 15.7762 82.1431 26.1148 82.1308H26.1165ZM26.1165 109.532C32.1692 109.532 37.0758 105.004 37.0758 99.4181C37.0758 93.8323 32.1693 89.3042 26.1165 89.3042C20.0636 89.3042 15.157 93.8323 15.157 99.4181C15.1658 105.001 20.0673 109.524 26.1158 109.532L26.1165 109.532ZM52.3105 133.719H44.5377C44.5377 124.35 36.3077 116.755 26.1552 116.755C16.0028 116.755 7.77274 124.35 7.77274 133.719H0C0 120.389 11.7101 109.582 26.1552 109.582C40.6003 109.582 52.3105 120.389 52.3105 133.719ZM15.3045 74.5992L7.53172 74.126C9.39143 49.0096 24.9596 27.5958 47.3221 16.0536L47.7166 15.8665L51.4708 22.1501C30.9495 32.6733 16.9178 51.9726 15.3155 74.4055L15.3043 74.5991L15.3045 74.5992ZM155.695 74.5992C154.092 51.9658 140.061 32.6575 119.892 22.2967L119.537 22.1286L123.291 15.8452C146.048 27.581 161.612 49.0036 163.447 73.9044L163.46 74.1257L155.695 74.5992ZM85.5 157.806C74.8452 157.798 64.6947 155.816 55.4506 152.235L55.9634 152.412L58.9095 145.777C66.7678 148.849 75.906 150.634 85.4962 150.634C95.0864 150.634 104.225 148.849 112.542 145.619L112.083 145.777L115.029 152.412C106.3 155.815 96.1522 157.797 85.5038 157.806H85.5002L85.5 157.806Z" fill="#004AAD"/>
</svg>
