<svg width="133" height="112" viewBox="0 0 133 112" fill="none" xmlns="http://www.w3.org/2000/svg">
<path d="M8.10122 77.2844H35.9928V111.346H8.10122V77.2844ZM30.2061 82.3457H13.888V106.285H30.2061V82.3457ZM96.521 38.6676H124.413V111.346H96.521V38.6676ZM118.626 43.7288H102.308V106.285H118.626V43.7288ZM52.3111 57.9508H80.2028V111.346H52.3112L52.3111 57.9508ZM74.4161 63.012H58.098V106.285H74.4161V63.012ZM132.514 111.346H0V106.285H132.514V111.346ZM118.858 26.6724H113.071V5.06134H88.3618V0H118.857L118.858 26.6724ZM11.1335 48.537H10.9944V43.4758C47.0249 43.4251 79.6371 30.667 103.295 10.0532L113.939 0.74403L118.03 4.32242L107.342 13.635C95.0309 24.4384 80.353 33.1701 64.0445 39.186L63.1552 39.4772C47.8163 45.2062 29.97 48.5368 11.2342 48.5368H11.1282H11.1334L11.1335 48.537Z" fill="black"/>
</svg>
